<svg id="Layer_1" data-name="Layer 1" xmlns="http://www.w3.org/2000/svg" width="76" height="76" viewBox="0 0 76 76"><defs><style>.cls-1{fill:none;}.cls-2{fill:#95d600;}</style></defs><title>Artboard 40</title><path class="cls-1" d="M37.4,29a16.34,16.34,0,0,1,1.79.09,10.18,10.18,0,0,1,1.59.33,9.06,9.06,0,0,1,1.49.59c.44.22.93.48,1.43.78a.84.84,0,0,0,.51.18c.06,0,.16,0,.3-.24L45.67,29c-.26-.2-.54-.4-.83-.59a10.86,10.86,0,0,0-2-1,13.64,13.64,0,0,0-2.41-.67,15.85,15.85,0,0,0-2.83-.25,14.69,14.69,0,0,0-5.24.9,11.37,11.37,0,0,0-3.91,2.48A10.85,10.85,0,0,0,26,33.66a13.29,13.29,0,0,0-.88,4.89A12.5,12.5,0,0,0,26,43.37a11,11,0,0,0,2.61,3.79,12.14,12.14,0,0,0,4.1,2.53,14.92,14.92,0,0,0,5.4.93A15.82,15.82,0,0,0,42.51,50a12.64,12.64,0,0,0,3.37-1.59V39.31H39.09v1.94h3.78v6l-.75.31a11.9,11.9,0,0,1-1.91.64,10.62,10.62,0,0,1-5.93-.42,8,8,0,0,1-2.93-2,8.84,8.84,0,0,1-1.88-3.13,12.36,12.36,0,0,1-.64-4.09,12,12,0,0,1,.58-3.79,8.93,8.93,0,0,1,1.71-3,7.71,7.71,0,0,1,2.74-2A8.61,8.61,0,0,1,37.4,29Z"/><path class="cls-1" d="M17.73,45.77a8.48,8.48,0,0,0,.64-3.33,7.59,7.59,0,0,0-.47-2.68,5.77,5.77,0,0,0-1.34-2.1,6.3,6.3,0,0,0-2.22-1.43A9.76,9.76,0,0,0,10,35.74a9.94,9.94,0,0,0-1.27.18l-1.74.34,1.2-7.06h7.24a4.1,4.1,0,0,0,1.15-.14,1.43,1.43,0,0,0,.54-.27.88.88,0,0,0,.24-.34,1.8,1.8,0,0,0,.09-.6V26.79h-11L4.5,37.68l2,.54A10.41,10.41,0,0,1,10,37.61a5.49,5.49,0,0,1,3.86,1.32,4.92,4.92,0,0,1,1.46,3.78A8.61,8.61,0,0,1,15,44.83a5.24,5.24,0,0,1-.93,1.91,4.56,4.56,0,0,1-1.73,1.36,5.62,5.62,0,0,1-2.4.48,6.55,6.55,0,0,1-2.29-.36,8.6,8.6,0,0,1-1.52-.74l-1-.64a.55.55,0,0,0-.56-.06.62.62,0,0,0-.21.19l-1,1.38.6.45a11.14,11.14,0,0,0,1.67.94,10.92,10.92,0,0,0,1.93.64,9.23,9.23,0,0,0,2.14.24A10.21,10.21,0,0,0,13.21,50,8.09,8.09,0,0,0,16,48.33,7.85,7.85,0,0,0,17.73,45.77Z"/><path class="cls-2" d="M17.63,50.1A10,10,0,0,0,20,46.73a10.77,10.77,0,0,0,.84-4.29,10.1,10.1,0,0,0-.62-3.54,8.2,8.2,0,0,0-1.89-3,8.89,8.89,0,0,0-3.06-2,12.1,12.1,0,0,0-5.32-.67l.28-1.65h5.18a6.44,6.44,0,0,0,1.85-.24,3.64,3.64,0,0,0,1.48-.8,3.31,3.31,0,0,0,.88-1.28,4.09,4.09,0,0,0,.26-1.47v-3.5H4.29L1.72,39.46l4.89,1.32L7,40.63a8.13,8.13,0,0,1,3-.57,3.18,3.18,0,0,1,2.2.66,2.57,2.57,0,0,1,.68,2,6,6,0,0,1-.18,1.5,2.88,2.88,0,0,1-.5,1,2.15,2.15,0,0,1-.83.64,3.23,3.23,0,0,1-1.37.25,4,4,0,0,1-1.42-.21,5.74,5.74,0,0,1-1.11-.53l-1-.63a3,3,0,0,0-3-.16,3.07,3.07,0,0,0-1,.9L0,48.65l.77.75a13.06,13.06,0,0,0,1.7,1.4A12.46,12.46,0,0,0,4.56,52a12.8,12.8,0,0,0,2.38.8,11.89,11.89,0,0,0,2.7.3,12.72,12.72,0,0,0,4.43-.76A10.52,10.52,0,0,0,17.63,50.1Zm-8,.52a9.23,9.23,0,0,1-2.14-.24,10.92,10.92,0,0,1-1.93-.64A11.14,11.14,0,0,1,3.9,48.8l-.6-.45,1-1.38a.62.62,0,0,1,.21-.19.55.55,0,0,1,.56.06l1,.64a8.6,8.6,0,0,0,1.52.74,6.55,6.55,0,0,0,2.29.36,5.62,5.62,0,0,0,2.4-.48,4.56,4.56,0,0,0,1.73-1.36A5.24,5.24,0,0,0,15,44.83a8.61,8.61,0,0,0,.26-2.12,4.92,4.92,0,0,0-1.46-3.78A5.49,5.49,0,0,0,10,37.61a10.41,10.41,0,0,0-3.48.61l-2-.54L6.35,26.79h11v1.06a1.8,1.8,0,0,1-.09.6.88.88,0,0,1-.24.34,1.43,1.43,0,0,1-.54.27,4.1,4.1,0,0,1-1.15.14H8.14l-1.2,7.06,1.74-.34A9.94,9.94,0,0,1,10,35.74a9.76,9.76,0,0,1,4.39.49,6.3,6.3,0,0,1,2.22,1.43,5.77,5.77,0,0,1,1.34,2.1,7.59,7.59,0,0,1,.47,2.68,8.48,8.48,0,0,1-.64,3.33A7.85,7.85,0,0,1,16,48.33,8.09,8.09,0,0,1,13.21,50,10.21,10.21,0,0,1,9.64,50.62Z"/><path class="cls-2" d="M33,33.35A5.28,5.28,0,0,1,34.84,32a6.49,6.49,0,0,1,2.56-.49,13.27,13.27,0,0,1,1.49.08,7.16,7.16,0,0,1,1.19.24,7,7,0,0,1,1.1.44c.4.19.82.42,1.25.68a3.07,3.07,0,0,0,2.3.48,2.9,2.9,0,0,0,1.82-1.29l2.31-3.51-.74-.71a12.78,12.78,0,0,0-2-1.53,13.46,13.46,0,0,0-2.43-1.22,16.57,16.57,0,0,0-2.84-.79,18.11,18.11,0,0,0-3.28-.29,17.09,17.09,0,0,0-6.12,1.06,13.94,13.94,0,0,0-4.75,3,13.3,13.3,0,0,0-3,4.62,15.61,15.61,0,0,0-1.05,5.79,14.85,14.85,0,0,0,1.11,5.76A13.44,13.44,0,0,0,27,48.94a14.79,14.79,0,0,0,4.9,3,17.58,17.58,0,0,0,6.28,1.09,18,18,0,0,0,5.06-.71A14.68,14.68,0,0,0,47.82,50l.5-.36V36.87H36.64v4.54a2.22,2.22,0,0,0,.71,1.65,2.41,2.41,0,0,0,1.73.64h1.34v1.87a7.67,7.67,0,0,1-.78.23A7.24,7.24,0,0,1,38,46a7.59,7.59,0,0,1-2.77-.49,5.73,5.73,0,0,1-2-1.39,6.53,6.53,0,0,1-1.36-2.28,9.81,9.81,0,0,1-.5-3.27,9.31,9.31,0,0,1,.46-3A6.35,6.35,0,0,1,33,33.35Zm-1.84-1.61a8.93,8.93,0,0,0-1.71,3,12,12,0,0,0-.58,3.79,12.36,12.36,0,0,0,.64,4.09,8.84,8.84,0,0,0,1.88,3.13,8,8,0,0,0,2.93,2,10.62,10.62,0,0,0,5.93.42,11.9,11.9,0,0,0,1.91-.64l.75-.31v-6H39.09V39.31h6.79v9.11A12.64,12.64,0,0,1,42.51,50a15.82,15.82,0,0,1-4.38.61,14.92,14.92,0,0,1-5.4-.93,12.14,12.14,0,0,1-4.1-2.53A11,11,0,0,1,26,43.37a12.5,12.5,0,0,1-.92-4.82A13.29,13.29,0,0,1,26,33.66a10.85,10.85,0,0,1,2.48-3.78,11.37,11.37,0,0,1,3.91-2.48,14.69,14.69,0,0,1,5.24-.9,15.85,15.85,0,0,1,2.83.25,13.64,13.64,0,0,1,2.41.67,10.86,10.86,0,0,1,2,1c.29.19.57.39.83.59l-1.16,1.77c-.14.2-.24.23-.3.24a.84.84,0,0,1-.51-.18c-.5-.3-1-.56-1.43-.78a9.06,9.06,0,0,0-1.49-.59,10.18,10.18,0,0,0-1.59-.33A16.34,16.34,0,0,0,37.4,29a8.61,8.61,0,0,0-3.54.7A7.71,7.71,0,0,0,31.12,31.74Z"/><path class="cls-2" d="M64.27,10.6a38,38,0,0,0-53.17.47l1.79,1.8a35.51,35.51,0,0,1,49.63-.44,35.45,35.45,0,0,1-24.59,61A35.3,35.3,0,0,1,12.78,63L11,64.82a38.06,38.06,0,0,0,53.87,0,38,38,0,0,0-.59-54.24Z"/><path class="cls-2" d="M16.33,59.39A30.44,30.44,0,0,0,68.37,38,30.47,30.47,0,0,0,37.93,7.61a30.24,30.24,0,0,0-21.44,8.85l1.78,1.8a27.85,27.85,0,1,1-.14,39.34Z"/><path class="cls-2" d="M37.93,60.78A22.78,22.78,0,1,0,21.87,21.83l1.78,1.81a20.25,20.25,0,1,1-.18,28.53L21.66,54A22.65,22.65,0,0,0,37.93,60.78Z"/></svg>