<svg id="Layer_1" data-name="Layer 1" xmlns="http://www.w3.org/2000/svg" width="76" height="76" viewBox="0 0 76 76"><defs><style>.cls-1{fill:#00c1de;}</style></defs><title>Artboard 8</title><path class="cls-1" d="M66.39,16.6H64V14.23A4.73,4.73,0,0,0,59.27,9.5H55L54.1,8.18,50.05,2.1A4.73,4.73,0,0,0,46.12,0H29.63A4.73,4.73,0,0,0,25.7,2.1L21.65,8.18,20.77,9.5H16.48a4.73,4.73,0,0,0-4.73,4.73V61.77a4.73,4.73,0,0,0,4.73,4.73h4.29l.88,1.32L25.7,73.9A4.73,4.73,0,0,0,29.63,76H46.12a4.73,4.73,0,0,0,3.93-2.1l4.05-6.08L55,66.5h4.29A4.73,4.73,0,0,0,64,61.77V35.6h2.39a2.36,2.36,0,0,0,2.36-2.36V19A2.36,2.36,0,0,0,66.39,16.6ZM27.68,3.42a2.35,2.35,0,0,1,1.95-1H46.12a2.35,2.35,0,0,1,2,1L52.13,9.5H23.63ZM48.07,72.58a2.35,2.35,0,0,1-2,1H29.63a2.35,2.35,0,0,1-1.95-1L23.63,66.5H52.12ZM61.63,61.77a2.36,2.36,0,0,1-2.36,2.36H16.48a2.36,2.36,0,0,1-2.36-2.36V14.23a2.36,2.36,0,0,1,2.36-2.36H59.27a2.36,2.36,0,0,1,2.36,2.36Zm4.74-28.55H64V19h2.38ZM45,30.88a9.5,9.5,0,1,0,9.5,9.5A9.51,9.51,0,0,0,45,30.88ZM45,47.5a7.13,7.13,0,1,1,7.12-7.12A7.13,7.13,0,0,1,45,47.5ZM37.9,26.11a7.14,7.14,0,1,0-7.14,7.14A7.14,7.14,0,0,0,37.9,26.11Zm-11.9,0a4.77,4.77,0,1,1,4.76,4.76A4.77,4.77,0,0,1,26,26.11Zm4.76,23.77a4.75,4.75,0,1,0,4.75,4.74A4.75,4.75,0,0,0,30.76,49.88Zm0,7.12a2.38,2.38,0,1,1,2.38-2.38A2.37,2.37,0,0,1,30.76,57Z"/></svg>