<svg id="Layer_1" data-name="Layer 1" xmlns="http://www.w3.org/2000/svg" width="150" height="150" viewBox="0 0 150 150"><defs><style>.cls-1{fill:#00c1de;}.cls-2{fill:none;stroke:#7d868c;stroke-width:2.07px;}.cls-2,.cls-9{stroke-miterlimit:10;}.cls-3{fill:#95d600;}.cls-4,.cls-9{fill:#fff;}.cls-5{fill:#7d868c;}.cls-6{fill:#0091bd;}.cls-7{fill:#f36c21;}.cls-8{fill:#ffc700;}.cls-9{stroke:#0091bd;stroke-width:2.3px;}</style></defs><title>Artboard 25 copy</title><path class="cls-1" d="M73.48,75.23l3.08,1.48a1.71,1.71,0,0,0-3.08-1.48Z"/><path class="cls-1" d="M76.66,72.56a1.67,1.67,0,0,0,2.25-.75l-3.08-1.48A1.69,1.69,0,0,0,76.66,72.56Z"/><path class="cls-1" d="M75.83,70.33l3.08,1.48a1.71,1.71,0,0,0-3.08-1.48Z"/><path class="cls-1" d="M79,67.65a1.68,1.68,0,0,0,2.26-.75l-3.09-1.47A1.68,1.68,0,0,0,79,67.65Z"/><path class="cls-1" d="M78.18,65.43l3.09,1.47a1.71,1.71,0,0,0-3.09-1.47Z"/><path class="cls-1" d="M81.36,62.75A1.68,1.68,0,0,0,83.62,62l-3.08-1.48A1.68,1.68,0,0,0,81.36,62.75Z"/><path class="cls-1" d="M80.54,60.52,83.62,62a1.71,1.71,0,0,0-3.08-1.48Z"/><path class="cls-1" d="M83.72,57.84A1.67,1.67,0,0,0,86,57.1l-3.08-1.48A1.68,1.68,0,0,0,83.72,57.84Z"/><path class="cls-1" d="M82.89,55.62,86,57.1a1.71,1.71,0,0,0-3.08-1.48Z"/><path class="cls-1" d="M86.07,52.94a1.69,1.69,0,0,0,2.26-.75l-3.09-1.48A1.69,1.69,0,0,0,86.07,52.94Z"/><path class="cls-1" d="M85.24,50.71l3.09,1.48a1.71,1.71,0,0,0-3.09-1.48Z"/><path class="cls-1" d="M88.42,48a1.68,1.68,0,0,0,2.26-.74L87.6,45.81A1.66,1.66,0,0,0,88.42,48Z"/><path class="cls-1" d="M87.6,45.81l3.08,1.48a1.69,1.69,0,0,0-.83-2.23A1.67,1.67,0,0,0,87.6,45.81Z"/><path class="cls-1" d="M90.78,43.13A1.67,1.67,0,0,0,93,42.38L90,40.9A1.69,1.69,0,0,0,90.78,43.13Z"/><path class="cls-1" d="M90,40.9,93,42.38A1.71,1.71,0,0,0,90,40.9Z"/><path class="cls-1" d="M93.13,38.22a1.69,1.69,0,0,0,2.26-.74L92.3,36A1.68,1.68,0,0,0,93.13,38.22Z"/><path class="cls-1" d="M92.3,36l3.09,1.48A1.71,1.71,0,0,0,92.3,36Z"/><path class="cls-1" d="M95.48,33.32a1.68,1.68,0,0,0,2.26-.75l-3.08-1.48A1.68,1.68,0,0,0,95.48,33.32Z"/><path class="cls-1" d="M94.66,31.09l3.08,1.48a1.71,1.71,0,0,0-3.08-1.48Z"/><path class="cls-1" d="M97.84,28.41a1.67,1.67,0,0,0,2.25-.74L97,26.19A1.68,1.68,0,0,0,97.84,28.41Z"/><path class="cls-1" d="M97,26.19l3.08,1.48A1.71,1.71,0,0,0,97,26.19Z"/><path class="cls-1" d="M100.19,23.51a1.69,1.69,0,0,0,2.26-.75l-3.09-1.48A1.69,1.69,0,0,0,100.19,23.51Z"/><path class="cls-1" d="M99.36,21.28l3.09,1.48a1.71,1.71,0,0,0-3.09-1.48Z"/><path class="cls-1" d="M102.54,18.61a1.69,1.69,0,0,0,2.26-.75l-3.08-1.48A1.68,1.68,0,0,0,102.54,18.61Z"/><path class="cls-1" d="M101.72,16.38l3.08,1.48a1.71,1.71,0,0,0-3.08-1.48Z"/><path class="cls-1" d="M104.9,13.7a1.67,1.67,0,0,0,2.25-.75l-3.08-1.48A1.68,1.68,0,0,0,104.9,13.7Z"/><path class="cls-1" d="M104.07,11.47,107.15,13a1.71,1.71,0,0,0-3.08-1.48Z"/><path class="cls-1" d="M107.25,8.8a1.7,1.7,0,0,0,2.26-.75l-3.09-1.48A1.69,1.69,0,0,0,107.25,8.8Z"/><path class="cls-2" d="M104.44,52.21a29.58,29.58,0,0,0-4.65.37A34,34,0,0,0,43.3,65.1a22.43,22.43,0,0,0-4.21-.4,22.78,22.78,0,0,0,0,45.56h65.35a29,29,0,0,0,0-58Z"/><path class="cls-3" d="M71.72,80l-1.4-3.13A1.72,1.72,0,1,0,71.72,80Z"/><path class="cls-3" d="M67.25,80.16a1.75,1.75,0,0,0-2.34-.82l1.4,3.12A1.75,1.75,0,0,0,67.25,80.16Z"/><path class="cls-3" d="M66.31,82.46l-1.4-3.12a1.71,1.71,0,1,0,1.4,3.12Z"/><path class="cls-3" d="M61.84,82.59a1.75,1.75,0,0,0-2.34-.82l1.4,3.12A1.76,1.76,0,0,0,61.84,82.59Z"/><path class="cls-3" d="M60.9,84.89l-1.4-3.12a1.71,1.71,0,1,0,1.4,3.12Z"/><path class="cls-3" d="M56.44,85a1.76,1.76,0,0,0-2.34-.83l1.4,3.12A1.76,1.76,0,0,0,56.44,85Z"/><path class="cls-3" d="M55.5,87.31l-1.4-3.12a1.71,1.71,0,1,0,1.4,3.12Z"/><path class="cls-3" d="M51,87.44a1.75,1.75,0,0,0-2.34-.82l1.4,3.12A1.76,1.76,0,0,0,51,87.44Z"/><path class="cls-3" d="M50.09,89.74l-1.4-3.12a1.71,1.71,0,1,0,1.4,3.12Z"/><path class="cls-3" d="M45.62,89.87A1.76,1.76,0,0,0,43.28,89l1.4,3.12A1.74,1.74,0,0,0,45.62,89.87Z"/><path class="cls-3" d="M44.68,92.16,43.28,89a1.71,1.71,0,1,0,1.4,3.12Z"/><path class="cls-3" d="M40.21,92.29a1.75,1.75,0,0,0-2.34-.82l1.4,3.12A1.75,1.75,0,0,0,40.21,92.29Z"/><path class="cls-3" d="M39.27,94.59l-1.4-3.12a1.71,1.71,0,1,0,1.4,3.12Z"/><path class="cls-3" d="M34.81,94.72a1.75,1.75,0,0,0-2.34-.82L33.87,97A1.77,1.77,0,0,0,34.81,94.72Z"/><path class="cls-3" d="M33.87,97l-1.4-3.12a1.74,1.74,0,0,0-.94,2.29A1.76,1.76,0,0,0,33.87,97Z"/><path class="cls-3" d="M29.4,97.15a1.76,1.76,0,0,0-2.34-.83l1.4,3.12A1.74,1.74,0,0,0,29.4,97.15Z"/><path class="cls-3" d="M28.46,99.44l-1.4-3.12a1.71,1.71,0,1,0,1.4,3.12Z"/><path class="cls-3" d="M24,99.57a1.75,1.75,0,0,0-2.34-.82l1.4,3.12A1.76,1.76,0,0,0,24,99.57Z"/><circle class="cls-4" cx="106.96" cy="8.31" r="7.15"/><path class="cls-5" d="M107,16.61a8.3,8.3,0,1,1,8.31-8.3A8.31,8.31,0,0,1,107,16.61Zm0-14.3a6,6,0,1,0,6,6A6,6,0,0,0,107,2.31Z"/><path class="cls-6" d="M74.08,77.78l2.55-2.28a1.71,1.71,0,1,0-2.55,2.28Z"/><path class="cls-6" d="M72.66,73.64a1.72,1.72,0,0,0,.11-2.44l-2.55,2.28A1.73,1.73,0,0,0,72.66,73.64Z"/><path class="cls-6" d="M70.22,73.48l2.55-2.28a1.71,1.71,0,1,0-2.55,2.28Z"/><path class="cls-6" d="M68.81,69.34a1.74,1.74,0,0,0,.1-2.45l-2.55,2.29A1.74,1.74,0,0,0,68.81,69.34Z"/><path class="cls-6" d="M66.36,69.18l2.55-2.29a1.71,1.71,0,1,0-2.55,2.29Z"/><path class="cls-6" d="M65,65a1.74,1.74,0,0,0,.1-2.45L62.5,64.87A1.74,1.74,0,0,0,65,65Z"/><path class="cls-6" d="M62.5,64.87l2.55-2.28a1.71,1.71,0,1,0-2.55,2.28Z"/><path class="cls-6" d="M61.09,60.73a1.72,1.72,0,0,0,.1-2.44l-2.54,2.28A1.73,1.73,0,0,0,61.09,60.73Z"/><path class="cls-6" d="M58.65,60.57l2.54-2.28a1.71,1.71,0,1,0-2.54,2.28Z"/><path class="cls-6" d="M57.23,56.43a1.73,1.73,0,0,0,.1-2.45l-2.54,2.29A1.73,1.73,0,0,0,57.23,56.43Z"/><path class="cls-6" d="M54.79,56.27,57.33,54a1.71,1.71,0,1,0-2.54,2.29Z"/><path class="cls-6" d="M53.37,52.13a1.74,1.74,0,0,0,.11-2.45L50.93,52A1.72,1.72,0,0,0,53.37,52.13Z"/><path class="cls-6" d="M50.93,52l2.55-2.28A1.71,1.71,0,1,0,50.93,52Z"/><path class="cls-6" d="M49.51,47.83a1.74,1.74,0,0,0,.11-2.45l-2.55,2.28A1.73,1.73,0,0,0,49.51,47.83Z"/><path class="cls-6" d="M47.07,47.66l2.55-2.28a1.71,1.71,0,1,0-2.55,2.28Z"/><path class="cls-6" d="M45.66,43.52a1.72,1.72,0,0,0,.1-2.44l-2.55,2.28A1.74,1.74,0,0,0,45.66,43.52Z"/><path class="cls-6" d="M43.21,43.36l2.55-2.28a1.71,1.71,0,1,0-2.55,2.28Z"/><path class="cls-6" d="M41.8,39.22a1.74,1.74,0,0,0,.1-2.45l-2.55,2.29A1.74,1.74,0,0,0,41.8,39.22Z"/><path class="cls-6" d="M39.35,39.06l2.55-2.29a1.71,1.71,0,1,0-2.55,2.29Z"/><path class="cls-6" d="M37.94,34.92a1.74,1.74,0,0,0,.1-2.45L35.5,34.75A1.73,1.73,0,0,0,37.94,34.92Z"/><path class="cls-6" d="M35.5,34.75,38,32.47a1.71,1.71,0,1,0-2.54,2.28Z"/><path class="cls-6" d="M34.08,30.61a1.72,1.72,0,0,0,.1-2.44l-2.54,2.28A1.73,1.73,0,0,0,34.08,30.61Z"/><path class="cls-7" d="M78.39,78.68l-2,2.79a1.71,1.71,0,1,0,2-2.79Z"/><path class="cls-7" d="M80.67,82.39a1.73,1.73,0,0,0,.44,2.4l2-2.79A1.73,1.73,0,0,0,80.67,82.39Z"/><path class="cls-7" d="M83.08,82l-2,2.79a1.71,1.71,0,1,0,2-2.79Z"/><path class="cls-7" d="M85.36,85.71a1.73,1.73,0,0,0,.44,2.4l2-2.79A1.73,1.73,0,0,0,85.36,85.71Z"/><path class="cls-7" d="M87.77,85.32l-2,2.79a1.71,1.71,0,1,0,2-2.79Z"/><path class="cls-7" d="M90.06,89a1.72,1.72,0,0,0,.43,2.4l2-2.79A1.71,1.71,0,0,0,90.06,89Z"/><path class="cls-7" d="M92.47,88.64l-2,2.79a1.71,1.71,0,1,0,2-2.79Z"/><path class="cls-7" d="M94.75,92.34a1.73,1.73,0,0,0,.43,2.41l2-2.8A1.73,1.73,0,0,0,94.75,92.34Z"/><path class="cls-7" d="M97.16,92l-2,2.8a1.71,1.71,0,1,0,2-2.8Z"/><path class="cls-7" d="M99.44,95.66a1.74,1.74,0,0,0,.44,2.41l2-2.8A1.73,1.73,0,0,0,99.44,95.66Z"/><path class="cls-7" d="M101.85,95.27l-2,2.8a1.71,1.71,0,1,0,2-2.8Z"/><path class="cls-7" d="M104.13,99a1.73,1.73,0,0,0,.44,2.4l2-2.79A1.73,1.73,0,0,0,104.13,99Z"/><path class="cls-7" d="M106.54,98.59l-2,2.79a1.71,1.71,0,1,0,2-2.79Z"/><path class="cls-7" d="M108.83,102.3a1.72,1.72,0,0,0,.43,2.4l2-2.79A1.72,1.72,0,0,0,108.83,102.3Z"/><path class="cls-7" d="M111.24,101.91l-2,2.79a1.71,1.71,0,1,0,2-2.79Z"/><path class="cls-7" d="M113.52,105.62A1.72,1.72,0,0,0,114,108l2-2.79A1.72,1.72,0,0,0,113.52,105.62Z"/><path class="cls-7" d="M115.93,105.23,114,108a1.71,1.71,0,1,0,2-2.79Z"/><path class="cls-7" d="M118.21,108.94a1.73,1.73,0,0,0,.44,2.4l2-2.79A1.72,1.72,0,0,0,118.21,108.94Z"/><path class="cls-7" d="M120.62,108.55l-2,2.79a1.71,1.71,0,1,0,2-2.79Z"/><path class="cls-7" d="M122.9,112.25a1.74,1.74,0,0,0,.44,2.41l2-2.8A1.73,1.73,0,0,0,122.9,112.25Z"/><path class="cls-7" d="M125.31,111.86l-2,2.8a1.71,1.71,0,1,0,2-2.8Z"/><path class="cls-7" d="M127.6,115.57A1.74,1.74,0,0,0,128,118l2-2.8A1.73,1.73,0,0,0,127.6,115.57Z"/><path class="cls-8" d="M76.55,77.24l-3.06-1.53a1.71,1.71,0,0,0,3.06,1.53Z"/><path class="cls-8" d="M73.33,79.87a1.68,1.68,0,0,0-2.26.71l3.06,1.53A1.68,1.68,0,0,0,73.33,79.87Z"/><path class="cls-8" d="M74.13,82.11l-3.06-1.53a1.71,1.71,0,0,0,3.06,1.53Z"/><path class="cls-8" d="M70.91,84.74a1.67,1.67,0,0,0-2.26.72L71.71,87A1.68,1.68,0,0,0,70.91,84.74Z"/><path class="cls-8" d="M71.71,87l-3.06-1.52a1.67,1.67,0,0,0,.79,2.23A1.69,1.69,0,0,0,71.71,87Z"/><path class="cls-8" d="M68.49,89.61a1.68,1.68,0,0,0-2.27.72l3.07,1.52A1.68,1.68,0,0,0,68.49,89.61Z"/><path class="cls-8" d="M69.29,91.85l-3.07-1.52a1.71,1.71,0,0,0,3.07,1.52Z"/><path class="cls-8" d="M66.07,94.48a1.68,1.68,0,0,0-2.27.72l3.07,1.52A1.69,1.69,0,0,0,66.07,94.48Z"/><path class="cls-8" d="M66.87,96.72,63.8,95.2a1.71,1.71,0,0,0,3.07,1.52Z"/><path class="cls-8" d="M63.65,99.35a1.68,1.68,0,0,0-2.27.72l3.06,1.52A1.68,1.68,0,0,0,63.65,99.35Z"/><path class="cls-8" d="M64.44,101.59l-3.06-1.52a1.71,1.71,0,0,0,3.06,1.52Z"/><path class="cls-8" d="M61.23,104.22a1.68,1.68,0,0,0-2.27.72L62,106.46A1.68,1.68,0,0,0,61.23,104.22Z"/><path class="cls-8" d="M62,106.46,59,104.94A1.71,1.71,0,0,0,62,106.46Z"/><path class="cls-8" d="M58.8,109.1a1.67,1.67,0,0,0-2.26.71l3.06,1.52A1.67,1.67,0,0,0,58.8,109.1Z"/><path class="cls-8" d="M59.6,111.33l-3.06-1.52a1.71,1.71,0,0,0,3.06,1.52Z"/><path class="cls-8" d="M56.38,114a1.68,1.68,0,0,0-2.26.71l3.06,1.52A1.67,1.67,0,0,0,56.38,114Z"/><path class="cls-8" d="M57.18,116.2l-3.06-1.52a1.71,1.71,0,0,0,3.06,1.52Z"/><path class="cls-8" d="M54,118.84a1.68,1.68,0,0,0-2.26.71l3.06,1.53A1.68,1.68,0,0,0,54,118.84Z"/><path class="cls-8" d="M54.76,121.08l-3.06-1.53a1.71,1.71,0,0,0,3.06,1.53Z"/><path class="cls-8" d="M51.54,123.71a1.69,1.69,0,0,0-2.27.71L52.34,126A1.68,1.68,0,0,0,51.54,123.71Z"/><path class="cls-8" d="M52.34,126l-3.07-1.53A1.72,1.72,0,0,0,52.34,126Z"/><path class="cls-8" d="M49.12,128.58a1.68,1.68,0,0,0-2.27.72l3.07,1.52A1.68,1.68,0,0,0,49.12,128.58Z"/><path class="cls-8" d="M49.92,130.82l-3.07-1.52a1.71,1.71,0,0,0,3.07,1.52Z"/><path class="cls-8" d="M46.7,133.45a1.68,1.68,0,0,0-2.27.72l3.07,1.52A1.69,1.69,0,0,0,46.7,133.45Z"/><path class="cls-8" d="M47.5,135.69l-3.07-1.52a1.71,1.71,0,0,0,3.07,1.52Z"/><path class="cls-8" d="M44.28,138.32A1.68,1.68,0,0,0,42,139l3.06,1.52A1.68,1.68,0,0,0,44.28,138.32Z"/><path class="cls-8" d="M45.07,140.56,42,139a1.71,1.71,0,0,0,3.06,1.52Z"/><path class="cls-8" d="M41.86,143.19a1.68,1.68,0,0,0-2.27.72l3.06,1.52A1.68,1.68,0,0,0,41.86,143.19Z"/><circle class="cls-9" cx="75.01" cy="76.26" r="14.31"/><circle class="cls-4" cx="28.84" cy="24.77" r="9.16"/><path class="cls-5" d="M28.84,35.08A10.32,10.32,0,1,1,39.15,24.77,10.32,10.32,0,0,1,28.84,35.08Zm0-18.33a8,8,0,1,0,8,8A8,8,0,0,0,28.84,16.75Z"/><circle class="cls-4" cx="131.02" cy="117.58" r="11.31"/><path class="cls-5" d="M131,130a12.46,12.46,0,1,1,12.46-12.46A12.47,12.47,0,0,1,131,130Zm0-22.62a10.16,10.16,0,1,0,10.16,10.16A10.17,10.17,0,0,0,131,107.42Z"/><circle class="cls-4" cx="42.12" cy="142.67" r="6.6"/><path class="cls-5" d="M42.12,150.43a7.76,7.76,0,1,1,7.76-7.76A7.77,7.77,0,0,1,42.12,150.43Zm0-13.22a5.46,5.46,0,1,0,5.46,5.46A5.46,5.46,0,0,0,42.12,137.21Z"/><circle class="cls-4" cx="20.62" cy="101.27" r="5.21"/><path class="cls-5" d="M20.62,107.63A6.37,6.37,0,1,1,27,101.27,6.37,6.37,0,0,1,20.62,107.63Zm0-10.42a4.06,4.06,0,1,0,4.06,4.06A4.06,4.06,0,0,0,20.62,97.21Z"/></svg>