<svg id="Layer_1" data-name="Layer 1" xmlns="http://www.w3.org/2000/svg" width="76" height="76" viewBox="0 0 76 76"><defs><style>.cls-1{fill:#00c1de;}</style></defs><title>Artboard 4</title><path class="cls-1" d="M73.56,25h-7L62.3,12.34A2.41,2.41,0,0,0,60,10.69H16a2.41,2.41,0,0,0-2.29,1.65L9.48,25h-7A2.44,2.44,0,0,0,0,27.45V34.3a2.44,2.44,0,0,0,2.44,2.44H5.56l-.69,2.08a2.42,2.42,0,0,0-.12.76V55.77a2.42,2.42,0,0,0,2.42,2.42h7.08v4.7a2.42,2.42,0,0,0,2.42,2.42H28.45a2.42,2.42,0,0,0,2.42-2.42v-4.7H45.13v4.7a2.42,2.42,0,0,0,2.42,2.42H59.33a2.42,2.42,0,0,0,2.42-2.42v-4.7h7.08a2.42,2.42,0,0,0,2.42-2.42V39.58a2.42,2.42,0,0,0-.12-.76l-.69-2.08h3.12A2.44,2.44,0,0,0,76,34.3V27.45A2.44,2.44,0,0,0,73.56,25ZM16,13.09s0,0,0,0H60s0,0,0,0l5.53,16.6H10.42ZM2.44,34.37a.08.08,0,0,1-.07-.07V27.45a.08.08,0,0,1,.07-.07H8.69l-2.33,7ZM28.5,62.89a0,0,0,0,1-.05,0H16.67a.05.05,0,0,1-.05,0v-4.7H28.5Zm30.88,0a.05.05,0,0,1-.05,0H47.55a0,0,0,0,1,0,0v-4.7H59.38Zm9.5-7.12a0,0,0,0,1,0,0H7.17a0,0,0,0,1,0,0V39.58h0l2.5-7.51H66.37l2.5,7.51h0ZM73.63,34.3a.08.08,0,0,1-.07.07H69.64l-2.33-7h6.25a.08.08,0,0,1,.07.07Zm-11.9,4.89H45.15a2.39,2.39,0,0,0-2.4,2.39v1.17h-9.5V41.58a2.39,2.39,0,0,0-2.4-2.39H14.27a2.39,2.39,0,0,0-2.39,2.39v4.71a2.4,2.4,0,0,0,2.39,2.4H30.85a2.4,2.4,0,0,0,2.4-2.4V45.12h9.5v1.17a2.4,2.4,0,0,0,2.4,2.4H61.73a2.4,2.4,0,0,0,2.39-2.4V41.58A2.39,2.39,0,0,0,61.73,39.19Zm-30.85,7.1s0,0,0,0H14.27a0,0,0,0,1,0,0V41.58l0,0H30.85s0,0,0,0Zm30.87,0a0,0,0,0,1,0,0H45.15s0,0,0,0V41.58s0,0,0,0H61.73a0,0,0,0,1,0,0Z"/></svg>