<svg xmlns="http://www.w3.org/2000/svg" width="76" height="64.4" viewBox="0 0 76 64.4"><defs><style>.cls-1{fill:none;}.cls-2{fill:#ffc700;}</style></defs><title>Asset 16</title><g id="Layer_2" data-name="Layer 2"><g id="Layer_1-2" data-name="Layer 1"><path class="cls-1" d="M64.53,15s-6.07-1.88-11,.84c-2.8,1.57-4.73,4.38-5.73,8.37l-2.38-.6c1.17-4.68,3.5-8,6.93-9.93A14.71,14.71,0,0,1,58.68,12a8.78,8.78,0,0,0-3.82-4.42c-1.85-1-4.14-1-6.81-.21A19,19,0,0,1,49.28,9.5l-2.24,1C47,10.46,44,4,38.59,2.69c-2.46-.6-5.09,0-7.83,1.73a19.48,19.48,0,0,1,1.94,1.7L31,7.86c-2.2-2.2-5.72-4.57-10-3.37a9.09,9.09,0,0,0-6,6.23h.87a14.1,14.1,0,0,1,5.09,1.15A12.82,12.82,0,0,1,27,15.81l-1.9,1.55a10.51,10.51,0,0,0-4.86-3.13,1.17,1.17,0,0,1-.26-.1,11.77,11.77,0,0,0-13.2,2.68c-2.81,3.44-3.11,6.68-1,11.21a23.4,23.4,0,0,1,3.68-1.87l.92,2.29c-4.23,1.7-6.79,4-7.62,6.83A8.74,8.74,0,0,0,4.2,42.52a10.41,10.41,0,0,0,7.68,4.15c6.74.28,13.19-6.24,13.25-6.31l1.77,1.72a28.17,28.17,0,0,1-2.53,2.2c2.32,2,12.32,4.47,20.13,2.87,4.74-1,7.48-3.19,8.14-6.59A7.26,7.26,0,0,0,50.07,35c-2.15-1.9-6.43-3.69-14.85-3.05l-.17.2a1.15,1.15,0,0,1-.19-.17,67.55,67.55,0,0,0-8.32,1.25l-.23.08a18.26,18.26,0,0,1-6.08,5.54l-1.16-2.17A14.5,14.5,0,0,0,22.56,34a5.77,5.77,0,0,1-4.92-2.23l2-1.46c1.73,2.34,6.05.62,6.09.6a.94.94,0,0,1,.22-.07c2.5-.52,4.84-.9,7-1.15A12,12,0,0,1,31,24.16,3.55,3.55,0,0,0,28,25.39l-1.9-1.56A5.87,5.87,0,0,1,31.1,21.7a14.25,14.25,0,0,1,2.09-5.55l2.09,1.3c-3.65,5.9-1,10.22.53,11.94,7.28-.45,12.63.8,15.94,3.76a10,10,0,0,1,2.85,4.29,22.22,22.22,0,0,0,5.26,1.92c6.21,1.15,11.72-4.26,13.24-9.95C73.75,27,75.05,18.69,64.53,15ZM60.87,27.42a5.66,5.66,0,0,0,3.06,4.39L62.8,34a8,8,0,0,1-4.29-5.82,12.25,12.25,0,0,1-2.48.26c-.3,0-.6,0-.92,0l.17-2.45a9,9,0,0,0,8.86-4.81l2.25,1A11.27,11.27,0,0,1,60.87,27.42Z"/><path class="cls-2" d="M65.31,12.7a18.94,18.94,0,0,0-4-.71A11.64,11.64,0,0,0,56,5.38C53.36,4,50.16,4,46.51,5.25A14.29,14.29,0,0,0,39.18.3C35.74-.54,32.15.38,28.49,3a11.07,11.07,0,0,0-8.28-.85l-.11,0C15.78,3.85,13.48,6.47,12.3,11A14.8,14.8,0,0,0,5,15.1l-.08.09C.48,20.52,1.67,25.38,3.75,29.52A10.79,10.79,0,0,0,.39,34.58,11.27,11.27,0,0,0,2.25,44a15.82,15.82,0,0,0,3,2.85C7,51.15,10.52,54.24,15.65,55.8a26.54,26.54,0,0,0,4.18.89A13.7,13.7,0,0,0,17,64.3l2.46.1c0-.06.29-5.8,4.23-7.63a1.23,1.23,0,0,0-.56-2.35c-.11,0-9.48.28-14-5.71a12.07,12.07,0,0,0,2.7.42h.53a19,19,0,0,0,10-3.42c2.3,2.38,9.74,4.38,16.78,4.38h.16c-1.32,2.56-4,4.35-6.55,6.08-1.19.8-2.32,1.55-3.32,2.38C26.11,61.3,25.91,64,25.9,64.3l2.45.1s.19-1.91,2.65-4c.89-.74,2-1.46,3.11-2.23C37.2,56.16,40.68,53.83,42,50a24.81,24.81,0,0,0,3-.42c5.77-1.18,9.25-4.16,10.08-8.62a.36.36,0,0,0,0-.1s0-.2,0-.45a28,28,0,0,0,4.24,1.37A10.81,10.81,0,0,0,61.4,42c5.67,0,12-4.09,14.07-11.91C77.1,23.93,75.29,16.17,65.31,12.7ZM73.1,29.41c-1.52,5.69-7,11.1-13.24,10a22.22,22.22,0,0,1-5.26-1.92,10,10,0,0,0-2.85-4.29c-3.31-3-8.66-4.21-15.94-3.76-1.49-1.72-4.18-6-.53-11.94l-2.09-1.3A14.25,14.25,0,0,0,31.1,21.7a5.87,5.87,0,0,0-5.05,2.13L28,25.39A3.55,3.55,0,0,1,31,24.16,12,12,0,0,0,33,29.64c-2.2.25-4.54.63-7,1.15a.94.94,0,0,0-.22.07s-4.36,1.74-6.09-.6l-2,1.46A5.77,5.77,0,0,0,22.56,34a14.5,14.5,0,0,1-3.49,2.68l1.16,2.17a18.26,18.26,0,0,0,6.08-5.54l.23-.08a67.55,67.55,0,0,1,8.32-1.25,1.15,1.15,0,0,0,.19.17l.17-.2c8.42-.64,12.7,1.15,14.85,3.05a7.26,7.26,0,0,1,2.57,5.61c-.66,3.4-3.4,5.62-8.14,6.59-7.81,1.6-17.81-.87-20.13-2.87a28.17,28.17,0,0,0,2.53-2.2l-1.77-1.72c-.06.07-6.51,6.59-13.25,6.31A10.41,10.41,0,0,1,4.2,42.52a8.74,8.74,0,0,1-1.45-7.25c.83-2.83,3.39-5.13,7.62-6.83l-.92-2.29A23.4,23.4,0,0,0,5.77,28c-2.15-4.53-1.85-7.77,1-11.21a11.77,11.77,0,0,1,13.2-2.68,1.17,1.17,0,0,0,.26.1,10.51,10.51,0,0,1,4.86,3.13L27,15.81a12.82,12.82,0,0,0-6.06-3.94,14.1,14.1,0,0,0-5.09-1.15h-.87a9.09,9.09,0,0,1,6-6.23c4.3-1.2,7.82,1.17,10,3.37L32.7,6.12a19.48,19.48,0,0,0-1.94-1.7c2.74-1.74,5.37-2.33,7.83-1.73C44,4,47,10.46,47,10.53l2.24-1a19,19,0,0,0-1.23-2.16c2.67-.81,5-.75,6.81.21A8.78,8.78,0,0,1,58.68,12a14.71,14.71,0,0,0-6.29,1.74C49,15.62,46.63,19,45.46,23.64l2.38.6c1-4,2.93-6.8,5.73-8.37,4.89-2.72,10.93-.85,11-.84C75.05,18.69,73.75,27,73.1,29.41Z"/><path class="cls-2" d="M55.28,25.94l-.17,2.45c.32,0,.62,0,.92,0a12.25,12.25,0,0,0,2.48-.26A8,8,0,0,0,62.8,34l1.13-2.18a5.66,5.66,0,0,1-3.06-4.39,11.27,11.27,0,0,0,5.52-5.29l-2.25-1A9,9,0,0,1,55.28,25.94Z"/></g></g></svg>