<svg xmlns="http://www.w3.org/2000/svg" width="76" height="66.5" viewBox="0 0 76 66.5"><defs><style>.cls-1{fill:#95d600;}</style></defs><title>Asset 13</title><g id="Layer_2" data-name="Layer 2"><g id="Layer_1-2" data-name="Layer 1"><path class="cls-1" d="M19,33.25H7.12V30.88H19ZM19,38H7.12v2.38H19Zm0,7.12H7.12V47.5H19Zm0,7.13H7.12v2.37H19ZM33.25,19H30.87v7.12h2.38Zm7.12,0H38v7.12h2.37Zm24.94,0H62.94v4.75h2.37Zm0,19H62.94v4.75h2.37ZM76,32.06V29.69H71.25v2.37Zm-19,0V29.69H52.25v2.37Zm16.36-8.74-1.68-1.68L68.32,25,70,26.68ZM59.93,36.75l-1.68-1.68-3.36,3.36,1.68,1.68Zm11.75,3.36,1.68-1.68L70,35.07l-1.68,1.68ZM58.25,26.68,59.93,25l-3.36-3.36-1.68,1.68Zm-25,4.2H30.87V38h2.38Zm7.12,0H38V38h2.37Zm0,11.87H38v7.13h2.37Zm-7.12,0H30.87v7.13h2.38ZM74.68,54.62a4.76,4.76,0,0,1-3.43,4.57V66.5H0V23.75l19-6.91V0L47.5,9.5V50.06a4.75,4.75,0,0,1,0,9.13v4.93H57V59.25a4.74,4.74,0,1,1,2.38-.06v4.93h9.5V59.25a4.74,4.74,0,1,1,5.8-4.63ZM58.06,57a2.38,2.38,0,1,0-2.38-2.38A2.38,2.38,0,0,0,58.06,57ZM23.75,17.64,2.38,25.41V64.12H23.75ZM45.12,59.25a4.74,4.74,0,0,1,0-9.25V11.21L21.38,3.3V16l4.74-1.73V64.12h19Zm3.44-4.63A2.38,2.38,0,1,0,46.18,57,2.38,2.38,0,0,0,48.56,54.62Zm23.75,0A2.38,2.38,0,1,0,69.93,57,2.38,2.38,0,0,0,72.31,54.62Z"/></g></g></svg>