<svg id="Layer_1" data-name="Layer 1" xmlns="http://www.w3.org/2000/svg" width="150" height="150" viewBox="0 0 150 150"><defs><style>.cls-1{fill:#0091bd;}.cls-2{fill:#f36c21;}.cls-3{fill:#95d600;}.cls-4{fill:#00c1de;}.cls-5{fill:#ffc700;}.cls-6,.cls-7{fill:#7d868c;stroke:#7d868c;stroke-miterlimit:10;}.cls-6{stroke-width:0.43px;}.cls-7{stroke-width:0.86px;}</style></defs><title>Artboard 25</title><path class="cls-1" d="M102.71,66.3A2.25,2.25,0,0,0,105,64.05V62.8h4.51V60.55H105v-1a2.24,2.24,0,0,0-2.25-2.25h-4.5V55A2.25,2.25,0,0,0,96,52.79H93.71v-4.5A2.25,2.25,0,0,0,91.46,46H90.21v-4.5H88V46H87a2.25,2.25,0,0,0-2.25,2.25v4.5h-4.5v-4.5A2.25,2.25,0,0,0,78,46H76.71v-4.5H74.46V46h-1a2.26,2.26,0,0,0-2.26,2.25v4.5H66.7v-4.5A2.25,2.25,0,0,0,64.45,46H63.2v-4.5H61V46H60a2.25,2.25,0,0,0-2.25,2.25v4.5H55.45A2.25,2.25,0,0,0,53.2,55V57.3H48.7a2.24,2.24,0,0,0-2.25,2.25V60.8H42v2.25h4.5v1A2.25,2.25,0,0,0,48.7,66.3h4.5v4.5H48.7a2.25,2.25,0,0,0-2.25,2.25V74.3H42v2.25h4.5v1A2.25,2.25,0,0,0,48.7,79.8h4.5v4.25H48.7a2.25,2.25,0,0,0-2.25,2.25v1.25H42V89.8h4.5v1a2.24,2.24,0,0,0,2.25,2.25h4.5v2.5a2.26,2.26,0,0,0,2.25,2.26H57.7v4.5A2.25,2.25,0,0,0,60,104.56H61.2v4.5h2.25v-4.5h1a2.25,2.25,0,0,0,2.25-2.25v-4.5h4.5v4.5a2.26,2.26,0,0,0,2.26,2.25h1.25v4.5H77v-4.5h1a2.25,2.25,0,0,0,2.25-2.25v-4.5h4.5v4.5A2.25,2.25,0,0,0,87,104.56h1.25v4.5h2.25v-4.5h1a2.25,2.25,0,0,0,2.25-2.25v-4.5H96a2.25,2.25,0,0,0,2.25-2.26V93.3h4.5A2.24,2.24,0,0,0,105,91.05V89.8h4.51V87.55H105v-1a2.25,2.25,0,0,0-2.25-2.25h-4.5V79.8h4.5A2.25,2.25,0,0,0,105,77.55V76.3h4.51V74.05H105v-1a2.25,2.25,0,0,0-2.25-2.25h-4.5V66.3Zm0-6.75v4.5h-4.5v-4.5ZM87,48.29h4.5v4.5H87Zm-13.5,0H78v4.5h-4.5ZM60,48.29h4.5v4.5H60ZM48.7,64.05v-4.5h4.5v4.5Zm0,13.5v-4.5h4.5v4.5Zm0,13.25V86.3h4.5v4.5Zm15.75,11.51H60v-4.5h4.5Zm13.51,0h-4.5v-4.5H78Zm13.5,0H87v-4.5h4.5Zm11.25-15.76v4.5h-4.5v-4.5Zm0-13.5v4.5h-4.5v-4.5ZM96,95.55H55.45V55H96Z"/><rect class="cls-2" x="61.2" y="111.29" width="2.25" height="14.06"/><rect class="cls-2" x="88.15" y="111.29" width="2.25" height="14.06"/><rect class="cls-2" x="74.64" y="111.29" width="2.25" height="12.11"/><rect class="cls-3" x="87.83" y="25.21" width="2.25" height="14.06" transform="translate(177.92 64.48) rotate(180)"/><rect class="cls-3" x="60.89" y="25.21" width="2.25" height="14.06" transform="translate(124.02 64.48) rotate(180)"/><rect class="cls-3" x="74.39" y="25.21" width="2.25" height="14.06" transform="translate(151.04 64.48) rotate(180)"/><rect class="cls-4" x="32.44" y="55.84" width="2.25" height="12.28" transform="translate(95.54 28.42) rotate(90)"/><rect class="cls-4" x="32.94" y="83.29" width="2.25" height="11.28" transform="translate(122.99 54.87) rotate(90)"/><rect class="cls-4" x="32.94" y="69.78" width="2.25" height="11.28" transform="translate(109.48 41.36) rotate(90)"/><rect class="cls-5" x="116.61" y="82.62" width="2.25" height="12.06" transform="translate(29.08 206.39) rotate(-90)"/><rect class="cls-5" x="116.61" y="55.68" width="2.25" height="12.06" transform="translate(56.02 179.44) rotate(-90)"/><rect class="cls-5" x="116.72" y="69.07" width="2.25" height="12.29" transform="translate(42.63 193.06) rotate(-90)"/><path class="cls-6" d="M20.51,77H19.2V73h1.31ZM10,73.69H8.73v2.62H10Zm2.61-2.62H11.34v7.86h1.31Zm2.62,1.31H14v5.24h1.31Zm2.62-2.62H16.58V80.24h1.31Zm12.44-5.23H29V61.91a2.62,2.62,0,0,0-2.62-2.62H24.31l-2.38-4a2.62,2.62,0,0,0-2.25-1.27H9.55a2.6,2.6,0,0,0-2.24,1.27l-2.38,4H2.83A2.62,2.62,0,0,0,.21,61.91V88.09a2.62,2.62,0,0,0,2.62,2.62h2.1l2.38,4A2.6,2.6,0,0,0,9.55,96H19.68a2.62,2.62,0,0,0,2.25-1.27l2.38-4H26.4A2.62,2.62,0,0,0,29,88.09V73.69h1.31a1.31,1.31,0,0,0,1.31-1.31V65.83a1.31,1.31,0,0,0-1.31-1.3M8.43,56a1.31,1.31,0,0,1,1.12-.64H19.68a1.32,1.32,0,0,1,1.13.64l2,3.29H6.46ZM20.81,94a1.32,1.32,0,0,1-1.13.64H9.55A1.31,1.31,0,0,1,8.43,94l-2-3.29H22.78Zm6.9-5.91A1.3,1.3,0,0,1,26.4,89.4H2.83a1.31,1.31,0,0,1-1.31-1.31V61.91A1.31,1.31,0,0,1,2.83,60.6H26.4a1.3,1.3,0,0,1,1.31,1.31Zm2.62-15.71H29V65.83h1.31Z"/><path class="cls-6" d="M148.47,54.05H124.94a1.31,1.31,0,0,0-1.31,1.31V94.64A1.31,1.31,0,0,0,124.94,96h23.53a1.32,1.32,0,0,0,1.32-1.31V55.36a1.32,1.32,0,0,0-1.32-1.31m0,40.59H124.94V88.1h23.53ZM124.94,55.36h23.53V86.8H124.94ZM139.32,92H134.1V90.72h5.22Zm-2-24.87H136V64.54h1.31Zm0,10.48H136V75h1.31Zm3.28-7.21h2.62v1.31h-2.62Zm-10.49,0h2.63v1.31h-2.63Zm9.8-1.66-.92-.92L140.85,66l.93.93Zm-7.41,7.42-.93-.93,1.85-1.85.93.92ZM139,74.33l.92-.92,1.86,1.85-.93.93Zm-7.42-7.41.93-.93,1.85,1.86-.93.92Z"/><rect class="cls-7" x="69.9" y="143.24" width="1.31" height="2.62"/><rect class="cls-7" x="75.35" y="143.24" width="1.31" height="2.62"/><rect class="cls-7" x="72.62" y="141.93" width="1.31" height="5.24"/><path class="cls-6" d="M76,122.29c-11.57,0-21,4.1-21,9.16v9.17c0,5.06,9.38,9.17,21,9.17s21-4.11,21-9.17v-9.17C97,126.39,87.57,122.29,76,122.29ZM65.52,147.21a25.77,25.77,0,0,1-3.81-1.31c-3.4-1.49-5.35-3.41-5.35-5.28v-6c1.71,2,5,3.68,9.16,4.74ZM60.15,136q.72-.41,1.56-.78A36.79,36.79,0,0,1,76,132.62a36.79,36.79,0,0,1,14.29,2.57c.56.25,1.08.51,1.56.77q-.72.4-1.56.78A36.79,36.79,0,0,1,76,139.31a36.79,36.79,0,0,1-14.29-2.57C61.15,136.49,60.63,136.23,60.15,136Zm25,11.55a44.28,44.28,0,0,1-18.34,0V139.7a46.16,46.16,0,0,0,18.34,0Zm10.47-6.9c0,1.87-2,3.79-5.35,5.28a25.77,25.77,0,0,1-3.81,1.31v-7.82c4.18-1.06,7.45-2.73,9.16-4.74Zm-2.53-5.45c-3.79-2.34-10-3.86-17.11-3.86s-13.31,1.53-17.1,3.87c-1.64-1.16-2.54-2.46-2.54-3.73,0-1.86,2-3.79,5.35-5.28A36.79,36.79,0,0,1,76,123.6a36.79,36.79,0,0,1,14.29,2.57c3.4,1.49,5.35,3.42,5.35,5.28C95.64,132.72,94.75,134,93.11,135.17Z"/><rect class="cls-7" x="78.07" y="141.93" width="1.31" height="5.24"/><rect class="cls-7" x="80.79" y="143.24" width="1.31" height="2.62"/><path class="cls-6" d="M92,12.05a2.61,2.61,0,0,1,2.62,2.61v7.82A2.61,2.61,0,0,1,92,25.09H58a2.61,2.61,0,0,1-2.62-2.61V14.66A2.61,2.61,0,0,1,58,12.05H92m0-1.31H58a3.93,3.93,0,0,0-3.93,3.92v7.82A3.93,3.93,0,0,0,58,26.4H92A3.93,3.93,0,0,0,96,22.48V14.66A3.93,3.93,0,0,0,92,10.74Zm-6.54,6.5a1.31,1.31,0,1,1-1.31,1.31,1.3,1.3,0,0,1,1.31-1.31m0-1.31a2.62,2.62,0,1,0,2.61,2.62,2.62,2.62,0,0,0-2.61-2.62Zm-22.26,2H59.29v1.3h3.93Zm6.54,0H65.83v1.3h3.93ZM78.07,4.59a10.47,10.47,0,0,1,14.81,0l.92-.92a11.75,11.75,0,0,0-16.65,0Zm7.41.86a6.54,6.54,0,0,0-4.63,1.92l.92.93a5.23,5.23,0,0,1,7.41,0l.92-.93A6.53,6.53,0,0,0,85.48,5.45Zm0-2.62A9.14,9.14,0,0,0,79,5.52l.92.92A7.86,7.86,0,0,1,91,6.44L92,5.52A9.13,9.13,0,0,0,85.48,2.83Z"/></svg>